<?xml version="1.0" encoding="UTF-8" standalone="no"?>
<!-- Created with Inkscape (http://www.inkscape.org/) -->

<svg
   width="256"
   height="256"
   viewBox="0 0 67.733332 67.733333"
   version="1.1"
   id="svg1"
   xmlns="http://www.w3.org/2000/svg"
   xmlns:svg="http://www.w3.org/2000/svg">
  <defs
     id="defs1" />
  <g
     id="layer1">
    <path
       style="fill:#a0a040;fill-opacity:1;stroke:none;stroke-width:0.79375;stroke-linecap:round;stroke-linejoin:round;stroke-opacity:1"
       d="m 47.179549,47.48599 a 19.049999,19.049999 0 0 1 -13.312883,5.430676 l -4.003373,6.004801 a 25.4,25.399998 0 0 0 4.003373,0.345199 25.4,25.399998 0 0 0 16.88114,-6.428031 z"
       id="path8" />
    <path
       style="fill:#a0a040;fill-opacity:1;stroke:none;stroke-width:0.79375;stroke-linecap:round;stroke-linejoin:round;stroke-opacity:1"
       d="M 33.866666,8.4666666 A 25.4,25.399998 0 0 0 16.994828,14.908651 l 3.565157,5.347993 A 19.049999,19.049999 0 0 1 33.866666,14.816666 L 37.883475,8.7917113 A 25.4,25.399998 0 0 0 33.866666,8.4666666 Z"
       id="path3" />
    <path
       style="fill:#a0a040;fill-opacity:1;stroke:none;stroke-width:0.79375;stroke-linecap:round;stroke-linejoin:round;stroke-opacity:1"
       d="M 12.279354,20.536214 A 25.4,25.399998 0 0 0 8.4666666,33.866666 25.4,25.399998 0 0 0 12.279354,47.197119 l 2.632914,-3.949113 A 21.166666,21.166666 0 0 1 12.7,33.866666 21.166666,21.166666 0 0 1 14.912268,24.485327 Z"
       id="path12" />
    <path
       style="fill:#a0a040;fill-opacity:1;stroke:none;stroke-width:0.79375;stroke-linecap:round;stroke-linejoin:round;stroke-opacity:1"
       d="m 55.462247,20.523295 -2.661853,3.992521 a 21.166666,21.166666 0 0 1 2.232939,9.35085 21.166666,21.166666 0 0 1 -2.206067,9.391158 l 2.640149,3.959965 A 25.4,25.399998 0 0 0 59.266666,33.866666 25.4,25.399998 0 0 0 55.462247,20.523295 Z"
       id="path11" />
    <path
       id="path14"
       style="fill:#a0a040;fill-opacity:1;stroke:none;stroke-width:0.79375;stroke-linecap:round;stroke-linejoin:round;stroke-opacity:1"
       d="M 44.887182 10.985893 L 16.994828 52.824682 A 25.4 25.399998 0 0 0 22.86217 56.723669 L 50.747806 14.894698 A 25.4 25.399998 0 0 0 44.887182 10.985893 z " />
  </g>
</svg>
