<?xml version="1.0" encoding="UTF-8" standalone="no"?>
<!-- Created with Inkscape (http://www.inkscape.org/) -->
<!-- Includes a 'custom' CSS part -->

<svg
   width="832"
   height="256"
   viewBox="0 0 220.13333 67.733333"
   version="1.1"
   id="svg1"
   xml:space="preserve"
   xmlns="http://www.w3.org/2000/svg"
   xmlns:svg="http://www.w3.org/2000/svg">
  <defs
     id="defs1" />
  <g
     id="layer1">
    <g
       id="layer1-3">
      <path
         style="fill:#a0a040;fill-opacity:1;stroke:none;stroke-width:0.79375;stroke-linecap:round;stroke-linejoin:round;stroke-opacity:1"
         d="m 47.184201,47.474106 a 19.049999,19.049999 0 0 1 -13.312883,5.430676 l -4.003373,6.004801 a 25.4,25.399998 0 0 0 4.003373,0.345199 25.4,25.399998 0 0 0 16.88114,-6.428031 z"
         id="path8" />
      <path
         style="fill:#a0a040;fill-opacity:1;stroke:none;stroke-width:0.79375;stroke-linecap:round;stroke-linejoin:round;stroke-opacity:1"
         d="M 33.871318,8.4547828 A 25.4,25.399998 0 0 0 16.99948,14.896767 l 3.565157,5.347993 A 19.049999,19.049999 0 0 1 33.871318,14.804782 L 37.888127,8.7798275 A 25.4,25.399998 0 0 0 33.871318,8.4547828 Z"
         id="path3" />
      <path
         style="fill:#a0a040;fill-opacity:1;stroke:none;stroke-width:0.79375;stroke-linecap:round;stroke-linejoin:round;stroke-opacity:1"
         d="M 12.284006,20.52433 A 25.4,25.399998 0 0 0 8.4713186,33.854782 25.4,25.399998 0 0 0 12.284006,47.185235 l 2.632914,-3.949113 a 21.166666,21.166666 0 0 1 -2.212268,-9.38134 21.166666,21.166666 0 0 1 2.212268,-9.381339 z"
         id="path12" />
      <path
         style="fill:#a0a040;fill-opacity:1;stroke:none;stroke-width:0.79375;stroke-linecap:round;stroke-linejoin:round;stroke-opacity:1"
         d="m 55.466899,20.511411 -2.661853,3.992521 a 21.166666,21.166666 0 0 1 2.232939,9.35085 21.166666,21.166666 0 0 1 -2.206067,9.391158 l 2.640149,3.959965 A 25.4,25.399998 0 0 0 59.271318,33.854782 25.4,25.399998 0 0 0 55.466899,20.511411 Z"
         id="path11" />
      <path
         id="path14"
         style="fill:#a0a040;fill-opacity:1;stroke:none;stroke-width:0.79375;stroke-linecap:round;stroke-linejoin:round;stroke-opacity:1"
         d="M 44.891834,10.974009 16.99948,52.812798 a 25.4,25.399998 0 0 0 5.867342,3.898987 L 50.752458,14.882814 a 25.4,25.399998 0 0 0 -5.860624,-3.908805 z" />
    </g>
    <style>
      #text1 { fill: #000000 }
      @media (prefers-color-scheme: dark) { #text1 { fill: #ffffff } }
    </style>
    <path
       d="m 97.121129,18.214976 q 0,1.1684 -0.6604,2.1336 l -18.846799,26.6192 h 19.075399 v 5.461 H 68.74933 v -2.6924 q 0,-0.508 0.1778,-0.9652 0.1778,-0.4826 0.4572,-0.889 l 18.897599,-26.7462 H 69.94313 v -5.4356 h 27.177999 z m 20.167581,18.1864 q 0,-1.2192 -0.3556,-2.286 -0.3302,-1.0922 -1.016,-1.905 -0.6858,-0.8128 -1.7526,-1.27 -1.0414,-0.4826 -2.4384,-0.4826 -2.7178,0 -4.2926,1.5494 -1.5494,1.5494 -1.9812,4.3942 z m -11.9634,3.7846 q 0.1524,2.0066 0.7112,3.4798 0.5588,1.4478 1.4732,2.413 0.9144,0.9398 2.159,1.4224 1.27,0.4572 2.794,0.4572 1.524,0 2.6162,-0.3556 1.1176,-0.3556 1.9304,-0.7874 0.8382,-0.4318 1.4478,-0.7874 0.635,-0.3556 1.2192,-0.3556 0.7874,0 1.1684,0.5842 l 1.8034,2.286 q -1.0414,1.2192 -2.3368,2.0574 -1.2954,0.8128 -2.7178,1.3208 -1.397,0.4826 -2.8702,0.6858 -1.4478,0.2032 -2.8194,0.2032 -2.7178,0 -5.0546,-0.889 -2.3368,-0.9144 -4.064,-2.667 -1.7272,-1.778 -2.7178,-4.3688 -0.990599,-2.6162 -0.990599,-6.0452 0,-2.667 0.8636,-5.0038 0.863599,-2.3622 2.463799,-4.0894 1.6256,-1.7526 3.937,-2.7686 2.3368,-1.016 5.2578,-1.016 2.4638,0 4.5466,0.7874 2.0828,0.7874 3.5814,2.3114 1.4986,1.4986 2.3368,3.7084 0.8636,2.1844 0.8636,5.0038 0,1.4224 -0.3048,1.9304 -0.3048,0.4826 -1.1684,0.4826 z m 28.16862,-10.6172 q 0.7874,-0.7874 1.651,-1.4478 0.889,-0.6858 1.8542,-1.143 0.9906,-0.4826 2.1082,-0.7366 1.1176,-0.2794 2.4384,-0.2794 2.1336,0 3.7846,0.7366 1.651,0.7112 2.7432,2.032 1.1176,1.2954 1.6764,3.1242 0.5842,1.8034 0.5842,3.9878 v 16.5862 h -6.2738 v -16.5862 q 0,-2.3876 -1.0922,-3.683 -1.0922,-1.3208 -3.3274,-1.3208 -1.6256,0 -3.048,0.7366 -1.4224,0.7366 -2.6924,2.0066 v 18.8468 h -6.2738 v -26.0604 h 3.8354 q 1.2192,0 1.6002,1.143 z m 29.28616,-3.2004 v 26.0604 h -6.2992 v -26.0604 z m 0.8636,-7.5946 q 0,0.8128 -0.3302,1.524 -0.3302,0.7112 -0.889,1.2446 -0.5334,0.5334 -1.27,0.8636 -0.7366,0.3048 -1.5748,0.3048 -0.8128,0 -1.5494,-0.3048 -0.7112,-0.3302 -1.2446,-0.8636 -0.5334,-0.5334 -0.8636,-1.2446 -0.3048,-0.7112 -0.3048,-1.524 0,-0.8382 0.3048,-1.5748 0.3302,-0.7366 0.8636,-1.27 0.5334,-0.5334 1.2446,-0.8382 0.7366,-0.3302 1.5494,-0.3302 0.8382,0 1.5748,0.3302 0.7366,0.3048 1.27,0.8382 0.5588,0.5334 0.889,1.27 0.3302,0.7366 0.3302,1.5748 z m 14.22398,34.0614 q -3.4036,0 -5.2324,-1.905 -1.8034,-1.9304 -1.8034,-5.3086 v -14.5542 h -2.667 q -0.508,0 -0.8636,-0.3302 -0.3556,-0.3302 -0.3556,-0.9906 v -2.4892 l 4.191,-0.6858 1.3208,-7.112 q 0.127,-0.508 0.4826,-0.7874 0.3556,-0.2794 0.9144,-0.2794 h 3.2512 v 8.2042 h 6.9596 v 4.4704 h -6.9596 v 14.1224 q 0,1.2192 0.5842,1.905 0.6096,0.6858 1.651,0.6858 0.5842,0 0.9652,-0.127 0.4064,-0.1524 0.6858,-0.3048 0.3048,-0.1524 0.5334,-0.2794 0.2286,-0.1524 0.4572,-0.1524 0.2794,0 0.4572,0.1524 0.1778,0.127 0.381,0.4064 l 1.8796,3.048 q -1.3716,1.143 -3.1496,1.7272 -1.778,0.5842 -3.683,0.5842 z m 16.48459,-23.6728 q 1.524,-1.4224 3.3528,-2.3114 1.8288,-0.889 4.2926,-0.889 2.1336,0 3.7846,0.7366 1.651,0.7112 2.7432,2.032 1.1176,1.2954 1.6764,3.1242 0.5842,1.8034 0.5842,3.9878 v 16.5862 h -6.2738 v -16.5862 q 0,-2.3876 -1.0922,-3.683 -1.0922,-1.3208 -3.3274,-1.3208 -1.6256,0 -3.048,0.7366 -1.4224,0.7366 -2.6924,2.0066 v 18.8468 h -6.2738 v -37.7444 h 6.2738 z"
       id="text1"
       style="font-weight:bold;font-size:50.8px;font-family:Lato;-inkscape-font-specification:'Lato Bold';stroke-width:0.264583;stroke-linecap:round;stroke-linejoin:round"
       aria-label="Zenith" />
  </g>
</svg>
